<svg width="32" height="32" viewBox="0 0 32 32" fill="none" xmlns="http://www.w3.org/2000/svg">
<path fill-rule="evenodd" clip-rule="evenodd" d="M22.4514 2.66666H9.54861C8.84577 2.66663 8.23938 2.66662 7.73997 2.70742C7.21284 2.75049 6.68855 2.84558 6.18404 3.10263C5.43139 3.48613 4.81947 4.09805 4.43598 4.8507C4.17892 5.3552 4.08383 5.8795 4.04076 6.40662C3.99996 6.90604 3.99998 7.51237 4 8.21522V25.3333C4 27.5425 5.79086 29.3333 8 29.3333H26.6667C27.403 29.3333 28 28.7364 28 28C28 27.2636 27.403 26.6667 26.6667 26.6667V24C27.403 24 28 23.403 28 22.6667V8.21524C28 7.51239 28 6.90605 27.9592 6.40662C27.9162 5.8795 27.8211 5.35521 27.564 4.8507C27.1805 4.09805 26.5686 3.48613 25.816 3.10263C25.3115 2.84558 24.7872 2.75049 24.26 2.70742C23.7606 2.66662 23.1542 2.66663 22.4514 2.66666ZM8 26.6667C7.26362 26.6667 6.66667 26.0697 6.66667 25.3333C6.66667 24.5969 7.26362 24 8 24H24V26.6667H8ZM12 7.99999C11.2636 7.99999 10.6667 8.59694 10.6667 9.33332C10.6667 10.0697 11.2636 10.6667 12 10.6667H20C20.7364 10.6667 21.3333 10.0697 21.3333 9.33332C21.3333 8.59694 20.7364 7.99999 20 7.99999H12ZM12 13.3333C11.2636 13.3333 10.6667 13.9303 10.6667 14.6667C10.6667 15.403 11.2636 16 12 16H20C20.7364 16 21.3333 15.403 21.3333 14.6667C21.3333 13.9303 20.7364 13.3333 20 13.3333H12Z" fill="currentColor"/>
</svg>
