<svg width="20" height="18" viewBox="0 0 20 18" fill="none" xmlns="http://www.w3.org/2000/svg">
<path d="M3.2 0H6.3C7.4201 0 7.98016 0 8.40798 0.217987C8.78431 0.409734 9.09027 0.715695 9.28201 1.09202C9.5 1.51984 9.5 2.0799 9.5 3.2V18L7.30616 16.5374C7.00658 16.3377 6.85668 16.2378 6.6946 16.167C6.55073 16.1042 6.39997 16.0586 6.24542 16.031C6.07131 16 5.89124 16 5.53112 16H3.2C2.0799 16 1.51984 16 1.09202 15.782C0.715695 15.5903 0.409734 15.2843 0.217987 14.908C0 14.4802 0 13.9201 0 12.8V3.2C0 2.0799 0 1.51984 0.217987 1.09202C0.409734 0.715695 0.715695 0.409734 1.09202 0.217987C1.51984 0 2.0799 0 3.2 0Z" fill="currentColor"/>
<path d="M16.8 0H13.7C12.5799 0 12.0198 0 11.592 0.217987C11.2157 0.409734 10.9097 0.715695 10.718 1.09202C10.5 1.51984 10.5 2.0799 10.5 3.2V18L12.6938 16.5374C12.9934 16.3377 13.1433 16.2378 13.3054 16.167C13.4493 16.1042 13.6 16.0586 13.7546 16.031C13.9287 16 14.1088 16 14.4689 16H16.8C17.9201 16 18.4802 16 18.908 15.782C19.2843 15.5903 19.5903 15.2843 19.782 14.908C20 14.4802 20 13.9201 20 12.8V3.2C20 2.0799 20 1.51984 19.782 1.09202C19.5903 0.715695 19.2843 0.409734 18.908 0.217987C18.4802 0 17.9201 0 16.8 0Z" fill="currentColor"/>
</svg>
