<svg width="20" height="20" viewBox="0 0 20 20" fill="none" xmlns="http://www.w3.org/2000/svg">
<path d="M5.8333 1.66669C6.29353 1.66669 6.66663 2.03978 6.66663 2.50002V3.33335H13.3333V2.50002C13.3333 2.03978 13.7064 1.66669 14.1666 1.66669C14.6269 1.66669 15 2.03978 15 2.50002V3.33338C15.3825 3.33361 15.716 3.33597 15.9958 3.35883C16.3253 3.38575 16.653 3.44518 16.9683 3.60584C17.4387 3.84552 17.8211 4.22797 18.0608 4.69838C18.2215 5.01369 18.2809 5.34138 18.3078 5.67083C18.3307 5.95064 18.333 6.28416 18.3333 6.66669H1.66665C1.66688 6.28416 1.66924 5.95064 1.6921 5.67083C1.71902 5.34138 1.77845 5.01369 1.93911 4.69838C2.1788 4.22797 2.56125 3.84552 3.03165 3.60584C3.34697 3.44518 3.67465 3.38575 4.00411 3.35883C4.28392 3.33597 4.61743 3.33361 4.99996 3.33338V2.50002C4.99996 2.03978 5.37306 1.66669 5.8333 1.66669Z" fill="currentColor"/>
<path fill-rule="evenodd" clip-rule="evenodd" d="M1.66663 8.33335V14.8655C1.66661 15.3047 1.6666 15.6838 1.6921 15.9959C1.71902 16.3253 1.77845 16.653 1.93911 16.9683C2.1788 17.4387 2.56125 17.8212 3.03165 18.0609C3.34697 18.2215 3.67465 18.281 4.00411 18.3079C4.31624 18.3334 4.69521 18.3334 5.13449 18.3334H14.8654C15.3047 18.3334 15.6837 18.3334 15.9958 18.3079C16.3253 18.281 16.653 18.2215 16.9683 18.0609C17.4387 17.8212 17.8211 17.4387 18.0608 16.9683C18.2215 16.653 18.2809 16.3253 18.3078 15.9959C18.3333 15.6837 18.3333 15.3048 18.3333 14.8655V8.33335H1.66663ZM3.33329 10.8334C3.33329 10.3731 3.70639 10 4.16663 10H5.83329C6.29353 10 6.66663 10.3731 6.66663 10.8334C6.66663 11.2936 6.29353 11.6667 5.83329 11.6667H4.16663C3.70639 11.6667 3.33329 11.2936 3.33329 10.8334ZM8.33329 10.8334C8.33329 10.3731 8.70639 10 9.16663 10H10.8333C11.2935 10 11.6666 10.3731 11.6666 10.8334C11.6666 11.2936 11.2935 11.6667 10.8333 11.6667H9.16663C8.70639 11.6667 8.33329 11.2936 8.33329 10.8334ZM14.1666 10C13.7064 10 13.3333 10.3731 13.3333 10.8334C13.3333 11.2936 13.7064 11.6667 14.1666 11.6667H15.8333C16.2935 11.6667 16.6666 11.2936 16.6666 10.8334C16.6666 10.3731 16.2935 10 15.8333 10H14.1666ZM3.33329 14.1667C3.33329 13.7064 3.70639 13.3334 4.16663 13.3334H5.83329C6.29353 13.3334 6.66663 13.7064 6.66663 14.1667C6.66663 14.6269 6.29353 15 5.83329 15H4.16663C3.70639 15 3.33329 14.6269 3.33329 14.1667ZM9.16663 13.3334C8.70639 13.3334 8.33329 13.7064 8.33329 14.1667C8.33329 14.6269 8.70639 15 9.16663 15H10.8333C11.2935 15 11.6666 14.6269 11.6666 14.1667C11.6666 13.7064 11.2935 13.3334 10.8333 13.3334H9.16663ZM13.3333 14.1667C13.3333 13.7064 13.7064 13.3334 14.1666 13.3334H15.8333C16.2935 13.3334 16.6666 13.7064 16.6666 14.1667C16.6666 14.6269 16.2935 15 15.8333 15H14.1666C13.7064 15 13.3333 14.6269 13.3333 14.1667Z" fill="currentColor"/>
</svg>
