<svg width="32" height="32" viewBox="0 0 32 32" fill="none" xmlns="http://www.w3.org/2000/svg">
<path d="M11.4478 4L4.78116 10.6667H2.66666V10.4C2.66666 8.15979 2.66666 7.03969 3.10263 6.18404C3.48612 5.43139 4.09805 4.81947 4.85069 4.43597C5.70634 4 6.82645 4 9.06666 4H11.4478Z" fill="currentColor"/>
<path d="M18.7812 4H15.2191L8.55239 10.6667H12.1145L18.7812 4Z" fill="currentColor"/>
<path d="M15.8857 10.6667H19.448L26.0108 4.10369C25.2793 4 24.3213 4 22.9333 4H22.5524L15.8857 10.6667Z" fill="currentColor"/>
<path d="M28.4244 5.46131L23.2192 10.6667H29.3333V10.4C29.3333 8.15979 29.3333 7.03969 28.8973 6.18404C28.7655 5.92531 28.6067 5.68321 28.4244 5.46131Z" fill="currentColor"/>
<path fill-rule="evenodd" clip-rule="evenodd" d="M29.3333 13.3333H2.66666V21.6C2.66666 23.8402 2.66666 24.9603 3.10263 25.816C3.48612 26.5686 4.09805 27.1805 4.85069 27.564C5.70634 28 6.82645 28 9.06666 28H22.9333C25.1735 28 26.2936 28 27.1493 27.564C27.9019 27.1805 28.5139 26.5686 28.8973 25.816C29.3333 24.9603 29.3333 23.8402 29.3333 21.6V13.3333ZM13.3333 18.0387V22.2708C13.3333 22.8874 13.3333 23.1957 13.4626 23.3718C13.5754 23.5254 13.7484 23.6234 13.9381 23.6411C14.1556 23.6613 14.42 23.5027 14.9488 23.1854L18.4756 21.0694C18.9784 20.7677 19.2298 20.6168 19.3151 20.4218C19.3895 20.2515 19.3895 20.0579 19.3151 19.8877C19.2298 19.6926 18.9784 19.5418 18.4756 19.2401L14.9488 17.124C14.42 16.8067 14.1556 16.6481 13.9381 16.6684C13.7484 16.6861 13.5754 16.7841 13.4626 16.9376C13.3333 17.1137 13.3333 17.422 13.3333 18.0387Z" fill="currentColor"/>
</svg>
