<svg width="20" height="20" viewBox="0 0 20 20" fill="none" xmlns="http://www.w3.org/2000/svg">
<path fill-rule="evenodd" clip-rule="evenodd" d="M1.66663 10C1.66663 5.39765 5.39759 1.66669 9.99996 1.66669C14.6023 1.66669 18.3333 5.39765 18.3333 10C18.3333 14.6024 14.6023 18.3334 9.99996 18.3334C5.39759 18.3334 1.66663 14.6024 1.66663 10ZM10.8333 5.83335C10.8333 5.37312 10.4602 5.00002 9.99996 5.00002C9.53972 5.00002 9.16663 5.37312 9.16663 5.83335V10C9.16663 10.1645 9.21532 10.3254 9.30658 10.4623L10.9733 12.9623C11.2285 13.3452 11.7459 13.4487 12.1289 13.1934C12.5118 12.9381 12.6153 12.4207 12.36 12.0378L10.8333 9.74771V5.83335Z" fill="currentColor"/>
</svg>
