<svg width="20" height="20" viewBox="0 0 20 20" fill="none" xmlns="http://www.w3.org/2000/svg">
<path d="M8.33341 2.50002C8.33341 2.03978 8.70651 1.66669 9.16675 1.66669H12.5001C12.9603 1.66669 13.3334 2.03978 13.3334 2.50002C13.3334 2.96026 12.9603 3.33335 12.5001 3.33335H10.8334H9.16675C8.70651 3.33335 8.33341 2.96026 8.33341 2.50002Z" fill="currentColor"/>
<path fill-rule="evenodd" clip-rule="evenodd" d="M10.8334 3.33335C14.9755 3.33335 18.3334 6.69122 18.3334 10.8334C18.3334 14.9755 14.9755 18.3334 10.8334 18.3334C9.04733 18.3334 7.40707 17.709 6.11897 16.6667H8.33341C9.25389 16.6667 10.0001 15.9205 10.0001 15C10.0001 14.0795 9.25389 13.3334 8.33341 13.3334H8.11044C8.25225 13.0882 8.33341 12.8036 8.33341 12.5C8.33341 11.5795 7.58722 10.8334 6.66675 10.8334H3.33341C3.33341 6.69122 6.69128 3.33335 10.8334 3.33335ZM10.8334 6.66669C10.3732 6.66669 10.0001 7.03978 10.0001 7.50002V10.8334C10.0001 11.2936 10.3732 11.6667 10.8334 11.6667C11.2937 11.6667 11.6667 11.2936 11.6667 10.8334V7.50002C11.6667 7.03978 11.2937 6.66669 10.8334 6.66669Z" fill="currentColor"/>
<path d="M2.50008 11.6667C2.03984 11.6667 1.66675 12.0398 1.66675 12.5C1.66675 12.9603 2.03984 13.3334 2.50008 13.3334H6.66675C7.12698 13.3334 7.50008 12.9603 7.50008 12.5C7.50008 12.0398 7.12699 11.6667 6.66675 11.6667H2.50008Z" fill="currentColor"/>
<path d="M4.16675 14.1667C3.70651 14.1667 3.33341 14.5398 3.33341 15C3.33341 15.4603 3.70651 15.8334 4.16675 15.8334H8.33341C8.79365 15.8334 9.16675 15.4603 9.16675 15C9.16675 14.5398 8.79365 14.1667 8.33341 14.1667H4.16675Z" fill="currentColor"/>
</svg>
