<svg width="32" height="32" viewBox="0 0 32 32" fill="none" xmlns="http://www.w3.org/2000/svg">
<path d="M16 2.66666C14.8641 2.66666 13.9941 3.35851 13.3958 4.11771C12.7856 4.89194 12.2945 5.92964 11.9067 7.09307C11.558 8.13898 11.2734 9.34623 11.0651 10.6667H20.9348C20.7266 9.34623 20.442 8.13898 20.0933 7.09307C19.7055 5.92964 19.2143 4.89194 18.6042 4.11771C18.0059 3.35851 17.1359 2.66666 16 2.66666Z" fill="currentColor"/>
<path d="M21.2379 13.3333H10.7621C10.6994 14.1963 10.6667 15.0886 10.6667 16C10.6667 16.9114 10.6994 17.8037 10.7621 18.6667H21.2379C21.3006 17.8037 21.3333 16.9114 21.3333 16C21.3333 15.0886 21.3006 14.1963 21.2379 13.3333Z" fill="currentColor"/>
<path d="M23.911 18.6667C23.97 17.7948 24 16.9028 24 15.9998C24 15.097 23.97 14.2051 23.9111 13.3333H29.0666C29.2415 14.1949 29.3333 15.0866 29.3333 15.9998C29.3333 16.9131 29.2415 17.805 29.0666 18.6667H23.911Z" fill="currentColor"/>
<path d="M20.9348 21.3333H11.0651C11.2734 22.6537 11.558 23.861 11.9067 24.9069C12.2945 26.0703 12.7856 27.108 13.3958 27.8823C13.9941 28.6415 14.8641 29.3333 16 29.3333C17.1359 29.3333 18.0059 28.6415 18.6042 27.8823C19.2143 27.108 19.7055 26.0703 20.0933 24.9069C20.442 23.861 20.7266 22.6537 20.9348 21.3333Z" fill="currentColor"/>
<path d="M8.08894 18.6667C8.03002 17.7948 7.99999 16.9028 7.99999 15.9998C7.99999 15.097 8.03002 14.2051 8.08892 13.3333H2.93334C2.75846 14.1949 2.66666 15.0866 2.66666 15.9998C2.66666 16.9131 2.75848 17.805 2.9334 18.6667H8.08894Z" fill="currentColor"/>
<path d="M3.77617 21.3333H8.36835C8.60063 22.9433 8.93969 24.4386 9.37683 25.75C9.6389 26.5362 9.96207 27.3355 10.3653 28.0876C7.42965 26.7168 5.07591 24.308 3.77617 21.3333Z" fill="currentColor"/>
<path d="M3.77604 10.6667H8.36831C8.60058 9.05656 8.93967 7.56113 9.37683 6.24964C9.6389 5.46343 9.96207 4.66418 10.3653 3.9121C7.42955 5.28295 5.07575 7.69184 3.77604 10.6667Z" fill="currentColor"/>
<path d="M23.6316 21.3333H28.2238C26.9241 24.308 24.5703 26.7168 21.6346 28.0876C22.0379 27.3355 22.3611 26.5362 22.6231 25.75C23.0603 24.4386 23.3994 22.9433 23.6316 21.3333Z" fill="currentColor"/>
<path d="M28.2239 10.6667H23.6317C23.3994 9.05656 23.0603 7.56113 22.6231 6.24964C22.3611 5.46343 22.0379 4.66418 21.6346 3.9121C24.5704 5.28294 26.9242 7.69183 28.2239 10.6667Z" fill="currentColor"/>
</svg>
