<svg width="20" height="20" viewBox="0 0 20 20" fill="none" xmlns="http://www.w3.org/2000/svg">
<path d="M3.33317 10C3.33317 6.31812 6.31794 3.33335 9.99984 3.33335C13.6817 3.33335 16.6665 6.31812 16.6665 10V13.3334C16.6665 13.7936 17.0396 14.1667 17.4998 14.1667C17.9601 14.1667 18.3332 13.7936 18.3332 13.3334V10C18.3332 5.39765 14.6022 1.66669 9.99984 1.66669C5.39746 1.66669 1.6665 5.39765 1.6665 10V14.1667C1.6665 14.6269 2.0396 15 2.49984 15C2.96007 15 3.33317 14.6269 3.33317 14.1667V10Z" fill="currentColor"/>
<path d="M4.1665 12.8572C4.1665 11.2792 5.44569 10 7.02365 10C8.20711 10 9.1665 10.9594 9.1665 12.1429V16.1905C9.1665 17.374 8.20711 18.3334 7.02365 18.3334C5.44569 18.3334 4.1665 17.0542 4.1665 15.4762V12.8572Z" fill="currentColor"/>
<path d="M15.8332 12.8572C15.8332 11.2792 14.554 10 12.976 10C11.7926 10 10.8332 10.9594 10.8332 12.1429V16.1905C10.8332 17.374 11.7926 18.3334 12.976 18.3334C14.554 18.3334 15.8332 17.0542 15.8332 15.4762V12.8572Z" fill="currentColor"/>
</svg>
