<svg width="32" height="32" viewBox="0 0 32 32" fill="none" xmlns="http://www.w3.org/2000/svg">
<path d="M14.2439 3.60945C15.38 3.21361 16.6165 3.21352 17.7527 3.60919C18.4902 3.86603 19.0985 4.32052 19.6928 4.87763C20.2675 5.41639 20.9171 6.13805 21.7077 7.0164L28.991 15.1078C29.4836 15.6551 29.4393 16.4981 28.892 16.9908C28.3447 17.4834 27.5016 17.4391 27.009 16.8918L26.6666 16.5115V21.6549C26.6667 22.7282 26.6667 23.614 26.6077 24.3355C26.5465 25.085 26.4151 25.7739 26.0853 26.4211C25.574 27.4246 24.7581 28.2405 23.7546 28.7518C23.1075 29.0815 22.4185 29.213 21.6691 29.2742C20.9475 29.3331 20.0617 29.3331 18.9884 29.3331H18.6666V23.4667C18.6666 22.7199 18.6666 22.3466 18.5213 22.0613C18.3935 21.8105 18.1895 21.6065 17.9386 21.4787C17.6534 21.3333 17.28 21.3333 16.5333 21.3333H15.4666C14.7199 21.3333 14.3465 21.3333 14.0613 21.4787C13.8104 21.6065 13.6064 21.8105 13.4786 22.0613C13.3333 22.3466 13.3333 22.7199 13.3333 23.4667V29.3331H13.0115C11.9383 29.3331 11.0525 29.3331 10.3309 29.2742C9.58141 29.213 8.89247 29.0815 8.24536 28.7518C7.24182 28.2405 6.42593 27.4246 5.9146 26.4211C5.58488 25.7739 5.45346 25.085 5.39223 24.3355C5.33327 23.614 5.33329 22.7281 5.3333 21.6548L5.3333 16.5114L4.9911 16.8917C4.49852 17.439 3.65547 17.4835 3.10809 16.9909C2.56071 16.4983 2.51627 15.6553 3.00885 15.1079L10.2894 7.01721C11.0799 6.13874 11.7293 5.41702 12.3039 4.87817C12.8981 4.32098 13.5064 3.8664 14.2439 3.60945Z" fill="currentColor"/>
</svg>
