<svg width="32" height="32" viewBox="0 0 32 32" fill="none" xmlns="http://www.w3.org/2000/svg">
<path fill-rule="evenodd" clip-rule="evenodd" d="M10.6667 8.26666C10.6667 5.25623 12.9747 2.66666 16 2.66666C19.0253 2.66666 21.3333 5.25623 21.3333 8.26666C21.3333 9.8413 20.6605 11.1819 19.831 12.3308C19.1445 13.2816 18.2651 14.2111 17.4323 15.0913C17.277 15.2555 17.1233 15.418 16.9727 15.5786C16.7206 15.8474 16.3685 16 16 16C15.6314 16 15.2793 15.8474 15.0273 15.5786C14.8767 15.418 14.7227 15.2552 14.5674 15.091C13.7346 14.2108 12.8554 13.2816 12.169 12.3308C11.3394 11.1819 10.6667 9.8413 10.6667 8.26666ZM18.6667 7.99999C18.6667 9.47275 17.4727 10.6667 16 10.6667C14.5272 10.6667 13.3333 9.47275 13.3333 7.99999C13.3333 6.52723 14.5272 5.33332 16 5.33332C17.4727 5.33332 18.6667 6.52723 18.6667 7.99999Z" fill="currentColor"/>
<path d="M7.99999 8.26666C7.99999 7.91121 8.02268 7.55813 8.06695 7.20943L4.59627 5.47409C4.18296 5.26743 3.6921 5.28951 3.29901 5.53246C2.90593 5.7754 2.66666 6.20455 2.66666 6.66666V24C2.66666 24.505 2.95199 24.9667 3.40371 25.1926L10.6667 28.824V14.7452C10.4381 14.4664 10.2158 14.1812 10.0069 13.8918C9.01875 12.5231 7.99999 10.6346 7.99999 8.26666Z" fill="currentColor"/>
<path d="M21.3333 14.7452C21.5619 14.4664 21.7842 14.1811 21.993 13.8918C22.9812 12.5231 24 10.6346 24 8.26666C24 7.88684 23.9741 7.50972 23.9236 7.13776L28.5963 9.47409C29.048 9.69994 29.3333 10.1616 29.3333 10.6667V28C29.3333 28.4621 29.0941 28.8913 28.701 29.1342C28.3079 29.3771 27.817 29.3992 27.4037 29.1926L21.3333 26.1574V14.7452Z" fill="currentColor"/>
<path d="M13.3333 17.6481C14.0636 18.3013 15.0121 18.6667 16 18.6667C16.9879 18.6667 17.9364 18.3013 18.6667 17.6481V26.1574L13.3333 28.824V17.6481Z" fill="currentColor"/>
</svg>
